{"title":"Naruto Shippuuden - 341 [720p] [ENG-SUBBED] [GWC].mkv","uid":9302702,"size":91921691,"categoryP":"video","categoryS":"tv_shows","magnet":"?xt=urn:btih:ca63afcf74d925f8c000470a17ac05d66d9417fc&amp;dn=Naruto+Shippuuden+-+341+%5B720p%5D+%5BENG-SUBBED%5D+%5BGWC%5D.mkv&amp;tr=udp%3A%2F%2Ftracker.openbittorrent.com%3A80&amp;tr=udp%3A%2F%2Fopen.demonii.com%3A1337&amp;tr=udp%3A%2F%2Ftracker.coppersurfer.tk%3A6969&amp;tr=udp%3A%2F%2Fexodus.desync.com%3A6969","seeders":0,"leechers":0,"uploader":"canc232","files":1,"time":1386268961,"description":"Naruto Shippuuden - 341 [720p] [ENG-SUBBED] [GWC] \nNaruto Shippuuden Ep : 341 - Orochimaru's Return\n\n\nTHUMBNAIL IMAGE : &lt;a href=&quot;\nhttp://img40.imageshack.us/img40/7195/33pp.jpg&quot; rel=&quot;nofollow&quot; target=&quot;_NEW&quot;&gt;\nhttp://img40.imageshack.us/img40/7195/33pp.jpg&lt;/a&gt;\n\n\n\nMEDIA INFO :\nGeneral \nFormat : Matroska \nFormat version : Version 4 / Version 2 \nFile size : 87.7 MiB \nDuration : 21mn 38s \nOverall bit rate mode : Variable \nOverall bit rate : 566 Kbps \nWriting application : mkvmerge v6.6.0 ('The Edge Of The In Between')\n\nVideo\nFormat : AVC\nFormat profile : &lt;a class=&quot;__cf_email__&quot; href=&quot;/cdn-cgi/l/email-protection&quot; data-cfemail=&quot;175f7e707f575b233927&quot;&gt;[email&amp;#160;protected]&lt;/a&gt;&lt;script data-cfhash='f9e31' type=&quot;text/javascript&quot;&gt;\n/* &lt;![CDATA[ */!function(){try{var t=&quot;currentScript&quot;in document?document.currentScript:function(){for(var t=document.getElementsByTagName(&quot;script&quot;),e=t.length;e--;)if(t[e].getAttribute(&quot;data-cfhash&quot;))return t[e]}();if(t&amp;&amp;t.previousSibling){var e,r,n,i,c=t.previousSibling,a=c.getAttribute(&quot;data-cfemail&quot;);if(a){for(e=&quot;&quot;,r=parseInt(a.substr(0,2),16),n=2;a.length-n;n+=2)i=parseInt(a.substr(n,2),16)^r,e+=String.fromCharCode(i);e=document.createTextNode(e),c.parentNode.replaceChild(e,c)}t.parentNode.removeChild(t);}}catch(u){}}()/* ]]&gt; */&lt;/script&gt; \nFormat settings, CABAC : Yes \nFormat settings, ReFrames : 11 frames\nDuration : 21mn 38s \nBit rate : 510 Kbps \nWidth : 1 280 pixels \nHeight : 720 pixels \nDisplay aspect ratio : 16:9 \nFrame rate mode : Constant \nFrame rate : 23.976 fps \nStream size : 77.2 MiB (88%) \nTitle : Naruto Shippuuden - 341 [720p] [ENG-SUBBED] [GWC] \nWriting library : x264 core\n\nAudio\nFormat : Vorbis \nDuration : 21mn 38s \nBit rate mode : Variable \nChannel(s) : 2 channels \nSampling rate : 44.1 KHz \nStream size : 8.67 MiB \nWriting library : aoTuV \n\nText \nFormat : UTF-8 \nCodec ID/Info : UTF-8 Plain Text \nTitle : [GWC] \nLanguage : English","torrent":{"xt":"urn:btih:ca63afcf74d925f8c000470a17ac05d66d9417fc","amp;dn":"Naruto+Shippuuden+-+341+%5B720p%5D+%5BENG-SUBBED%5D+%5BGWC%5D.mkv","amp;tr":["udp%3A%2F%2Ftracker.openbittorrent.com%3A80","udp%3A%2F%2Fopen.demonii.com%3A1337","udp%3A%2F%2Ftracker.coppersurfer.tk%3A6969","udp%3A%2F%2Fexodus.desync.com%3A6969"],"infoHash":"ca63afcf74d925f8c000470a17ac05d66d9417fc","infoHashBuffer":{"type":"Buffer","data":[202,99,175,207,116,217,37,248,192,0,71,10,23,172,5,214,109,148,23,252]},"announce":[],"urlList":[]}}